<svg xmlns="http://www.w3.org/2000/svg" version="1.1" xmlns:xlink="http://www.w3.org/1999/xlink" xmlns:svgjs="http://svgjs.dev/svgjs" width="128" height="128" viewBox="0 0 128 128"><g transform="matrix(0.8046875,0,0,0.8046875,12.25571201724351,6.059910199090858)"><svg viewBox="0 0 87 97" data-background-color="#ffffff" preserveAspectRatio="xMidYMid meet" height="142" width="128" xmlns="http://www.w3.org/2000/svg" xmlns:xlink="http://www.w3.org/1999/xlink"><g id="tight-bounds" transform="matrix(1,0,0,1,0.2063403349496582,0.6852970715224842)"><svg viewBox="0 0 85.87391429087843 95.481" height="95.481" width="85.87391429087843"><g><svg viewBox="0 0 85.87391429087843 95.481" height="95.481" width="85.87391429087843"><g><svg viewBox="0 0 85.87391429087843 95.481" height="95.481" width="85.87391429087843"><g id="textblocktransform"><svg viewBox="0 0 85.87391429087843 95.481" height="95.481" width="85.87391429087843" id="textblock"><g><svg viewBox="0 0 85.87391429087843 95.481" height="95.481" width="85.87391429087843"><g><svg viewBox="0 0 85.87391429087843 95.481" height="95.481" width="85.87391429087843"><g><svg xmlns="http://www.w3.org/2000/svg" data-name="Layer 1" viewBox="4 1.9991876948672724 53.99989123010535 60.04109230513273" x="0" y="0" height="95.481" width="85.87391429087843" class="icon-icon-0" data-fill-palette-color="accent" id="icon-0"><rect x="4" y="42.04028" width="12" height="20" fill="#fe5200" data-fill-palette-color="accent"></rect><path d="M43 19A1 1 0 0 1 42 18H40A3 3 0 0 0 46 18C46 15.886 44.308 15.359 43.296 15.043 42.17 14.693 42 14.556 42 14A1 1 0 0 1 44 14H46A3 3 0 0 0 40 14C40 16.11 41.69 16.638 42.701 16.953 43.831 17.305 44 17.442 44 18A1 1 0 0 1 43 19" fill="#fe5200" data-fill-palette-color="accent"></path><path d="M48 59.54A2.5 2.5 0 0 0 45.5 57.04H46.5A2.5 2.5 0 0 0 46.5 52.04H47.5A2.5 2.5 0 0 0 47.5 47.04 2.5 2.5 0 0 0 47.5 42.04H31.545L34.95 39.544A2.515 2.515 0 0 0 32 35.469L22.8 42.04H18V62.04H45.5A2.5 2.5 0 0 0 48 59.54" fill="#fe5200" data-fill-palette-color="accent"></path><path d="M28.667 17.115L31.575 18.716A1.265 1.265 0 0 1 32.124 20.364L30.734 23.329A1.286 1.286 0 0 0 32.077 25.133L35.393 24.757A1.307 1.307 0 0 1 36.829 25.777L37.485 28.97A1.32 1.32 0 0 0 39.657 29.661L42.112 27.452A1.333 1.333 0 0 1 43.887 27.452L46.342 29.66A1.32 1.32 0 0 0 48.515 28.971L49.17 25.776A1.307 1.307 0 0 1 50.607 24.757L53.923 25.133A1.286 1.286 0 0 0 55.266 23.33L53.876 20.364A1.265 1.265 0 0 1 54.424 18.716L57.334 17.115A1.266 1.266 0 0 0 57.333 14.885L54.423 13.284A1.265 1.265 0 0 1 53.877 11.636L55.266 8.671A1.286 1.286 0 0 0 53.923 6.867L50.607 7.243A1.307 1.307 0 0 1 49.171 6.223L48.515 3.03A1.32 1.32 0 0 0 46.343 2.339L43.888 4.548A1.333 1.333 0 0 1 42.113 4.548L39.658 2.34A1.27 1.27 0 0 0 37.548 3.03L36.827 6.223A1.307 1.307 0 0 1 35.394 7.243L32.077 6.867A1.286 1.286 0 0 0 30.734 8.67L32.124 11.636A1.265 1.265 0 0 1 31.576 13.284L28.666 14.885A1.266 1.266 0 0 0 28.667 17.115M43 9A7 7 0 1 1 36 16 7 7 0 0 1 43 9" fill="#fe5200" data-fill-palette-color="accent"></path><path d="M42.78 28.08L41 29.684V41H45V29.683L43.219 28.081A0.34 0.34 0 0 0 42.78 28.081" fill="#fe5200" data-fill-palette-color="accent"></path></svg></g></svg></g></svg></g></svg></g></svg></g></svg></g><defs></defs></svg><rect width="85.87391429087843" height="95.481" fill="none" stroke="none" visibility="hidden"></rect></g></svg></g></svg>